<svg data-v-423bf9ae="" xmlns="http://www.w3.org/2000/svg" viewBox="0 0 207.62281409645516 202" class="iconAboveSlogan"><!----><!----><!----><g data-v-423bf9ae="" id="faf27ee9-ff5d-4f70-8672-16e0ce6ac73c" fill="#2e3034" transform="matrix(4.754358204761736,0,0,4.754358204761736,-3.9936630362457777,97.81774784839513)"><path d="M3.82 10.64C5.50 10.64 6.24 9.46 6.43 8.41L5.92 8.37C5.70 9.38 5.12 10.21 3.82 10.21C1.96 10.21 1.37 8.74 1.37 6.82C1.37 4.58 2.28 3.57 3.78 3.57C4.90 3.57 5.64 4.09 5.87 5.19L6.38 5.15C6.15 3.98 5.33 3.14 3.78 3.14C2.11 3.14 0.84 4.21 0.84 6.83C0.84 8.99 1.62 10.64 3.82 10.64ZM14.57 10.22L14.01 10.22C13.57 10.22 13.45 10.00 13.45 9.60L13.45 5.54C13.45 3.93 12.60 3.14 10.96 3.14C9.41 3.14 8.60 3.86 8.43 5.05L8.92 5.10C9.10 4.00 9.74 3.54 10.95 3.54C12.33 3.54 12.96 4.21 12.96 5.60L12.96 6.33L11.26 6.33C9.28 6.33 8.11 7.07 8.11 8.57C8.11 9.79 8.89 10.64 10.37 10.64C11.72 10.64 12.60 10.01 12.96 8.83L12.96 9.63C12.96 10.22 13.17 10.64 13.92 10.64C14.21 10.64 14.45 10.63 14.57 10.61ZM10.37 10.23C9.23 10.23 8.58 9.56 8.58 8.55C8.58 7.25 9.62 6.72 11.38 6.72L12.96 6.72L12.96 7.03C12.96 8.82 12.18 10.23 10.37 10.23ZM21.18 10.50L21.66 10.50L21.66 5.60C21.66 3.72 20.65 3.14 19.31 3.14C17.99 3.14 17.14 3.98 16.88 5.07L16.86 3.28L16.41 3.28C16.44 4.07 16.44 4.42 16.44 5.03L16.44 10.50L16.91 10.50L16.91 6.43C16.91 4.55 17.91 3.56 19.21 3.56C20.33 3.56 21.18 4.05 21.18 5.66ZM30.03 3.81C30.03 2.16 29.12 1.09 26.95 1.09L24.18 1.09L24.18 10.50L24.68 10.50L24.68 6.57L27.01 6.57C29.08 6.57 30.03 5.43 30.03 3.81ZM29.53 3.81C29.53 5.22 28.77 6.13 26.96 6.13L24.68 6.13L24.68 1.51L26.92 1.51C28.76 1.51 29.53 2.46 29.53 3.81ZM37.86 10.22L37.30 10.22C36.85 10.22 36.74 10.00 36.74 9.60L36.74 5.54C36.74 3.93 35.88 3.14 34.24 3.14C32.69 3.14 31.88 3.86 31.71 5.05L32.20 5.10C32.38 4.00 33.03 3.54 34.23 3.54C35.62 3.54 36.25 4.21 36.25 5.60L36.25 6.33L34.54 6.33C32.56 6.33 31.39 7.07 31.39 8.57C31.39 9.79 32.17 10.64 33.66 10.64C35 10.64 35.88 10.01 36.25 8.83L36.25 9.63C36.25 10.22 36.46 10.64 37.20 10.64C37.49 10.64 37.73 10.63 37.86 10.61ZM33.66 10.23C32.51 10.23 31.86 9.56 31.86 8.55C31.86 7.25 32.90 6.72 34.66 6.72L36.25 6.72L36.25 7.03C36.25 8.82 35.46 10.23 33.66 10.23ZM39.51 13.71C40.32 13.71 40.64 13.44 41.10 12.24L44.51 3.28L44.00 3.28L42.28 7.90C41.89 8.96 41.52 10.04 41.52 10.04C41.52 10.04 41.10 8.93 40.71 7.92L38.92 3.28L38.42 3.28L41.27 10.56L40.68 12.12C40.36 12.99 40.19 13.31 39.33 13.31L38.70 13.31L38.70 13.71Z"></path></g><!----><g data-v-423bf9ae="" id="827df7e1-1a45-4eef-9787-0a85ff0da073" transform="matrix(1.0323706259275511,0,0,1.0323706259275511,-159.8758692482973,-218.8758692482973)" stroke="none" fill="#488eff"><path d="M256 299.589c-11.643 0-22.589-4.534-30.822-12.767S212.411 267.643 212.411 256s4.534-22.589 12.767-30.822 19.179-12.767 30.822-12.767c11.644 0 22.589 4.534 30.822 12.767 8.232 8.233 12.767 19.179 12.767 30.822 0 11.644-4.534 22.589-12.767 30.822-8.233 8.232-19.178 12.767-30.822 12.767zm0-83.538c-22.028 0-39.949 17.92-39.949 39.949s17.92 39.949 39.949 39.949 39.949-17.921 39.949-39.949-17.92-39.949-39.949-39.949z"></path><path d="M261.618 291.878a36.634 36.634 0 0 1-5.618.431c-20.104 0-36.4-16.296-36.4-36.399 0-20.057 16.22-36.324 36.258-36.398-10.94 6.141-19.037 17.481-19.037 35.479 0 17.702 8.057 31.804 24.797 36.887z"></path><path d="M292.401 255.909a36.26 36.26 0 0 1-9.355 24.362c-.826.056-1.649.087-2.447.087-12.508 0-22.045-7.365-22.045-26.188 0-18.307 9.21-26.026 19.896-26.916 8.494 6.664 13.951 17.021 13.951 28.655z"></path></g><!----><g data-v-423bf9ae="" id="f49f3425-b67b-49a9-9970-8a989da285ee" fill="#2e3034" transform="matrix(2.1348657164829565,0,0,2.1348657164829565,25.347038725819914,191.35942475535686)"><path d="M4.42 6.57L7.66 1.09L7.08 1.09L4.19 6.15L1.26 1.09L0.70 1.09L3.93 6.57L3.93 10.50L4.42 10.50ZM11.21 10.64C12.87 10.64 13.43 9.97 13.92 8.99L13.47 8.85C13.02 9.74 12.56 10.22 11.23 10.22C9.48 10.22 8.74 8.86 8.74 7.04L8.74 6.93L14 6.93C14 6.89 14.01 6.57 14.01 6.52C14.01 4.68 13.44 3.14 11.20 3.14C9.46 3.14 8.22 4.21 8.22 6.87C8.22 9.17 9.16 10.64 11.21 10.64ZM11.20 3.54C12.82 3.54 13.50 4.62 13.50 6.37L13.50 6.51L8.74 6.51C8.78 4.33 9.88 3.54 11.20 3.54ZM20.80 8.58C20.80 7.10 19.54 6.83 18.31 6.54C17.02 6.23 16.23 5.87 16.23 4.89C16.23 4.02 16.95 3.56 18.13 3.56C19.29 3.56 19.92 3.99 20.17 4.87L20.65 4.83C20.34 3.75 19.66 3.14 18.14 3.14C16.49 3.14 15.75 3.89 15.75 4.93C15.75 6.29 16.86 6.68 18.03 6.94C19.43 7.27 20.34 7.55 20.34 8.61C20.34 9.70 19.57 10.23 18.19 10.23C16.90 10.23 16.21 9.72 15.93 8.76L15.48 8.86C15.78 10.09 16.76 10.64 18.16 10.64C19.87 10.64 20.80 9.91 20.80 8.58ZM23.69 9.56L22.82 9.56L22.82 10.50L23.18 10.50C23.18 10.95 23.00 11.59 22.62 12.11L22.62 12.12L23.16 12.12C23.48 11.66 23.69 11.06 23.69 10.19ZM28.97 13.71C29.78 13.71 30.10 13.44 30.56 12.24L33.96 3.28L33.46 3.28L31.74 7.90C31.35 8.96 30.98 10.04 30.98 10.04C30.98 10.04 30.56 8.93 30.17 7.92L28.38 3.28L27.87 3.28L30.73 10.56L30.14 12.12C29.82 12.99 29.65 13.31 28.78 13.31L28.15 13.31L28.15 13.71ZM40.52 6.82C40.52 9.32 39.55 10.23 38.01 10.23C36.54 10.23 35.50 9.32 35.50 6.83C35.50 4.51 36.46 3.54 38.02 3.54C39.68 3.54 40.52 4.48 40.52 6.82ZM41.05 6.82C41.05 4.26 40.01 3.14 38.02 3.14C36.13 3.14 34.99 4.26 34.99 6.83C34.99 9.62 36.26 10.64 38.02 10.64C39.79 10.64 41.05 9.69 41.05 6.82ZM43.32 3.28L42.84 3.28L42.84 8.20C42.84 9.95 43.58 10.64 45.09 10.64C46.63 10.64 47.35 9.73 47.70 8.82L47.73 10.50L48.19 10.50L48.16 9.00L48.16 3.28L47.68 3.28L47.68 7.50C47.68 9.21 46.63 10.25 45.19 10.25C43.97 10.25 43.32 9.70 43.32 8.13ZM55.80 10.64C57.48 10.64 58.23 9.46 58.41 8.41L57.90 8.37C57.68 9.38 57.11 10.21 55.80 10.21C53.94 10.21 53.35 8.74 53.35 6.82C53.35 4.58 54.26 3.57 55.76 3.57C56.88 3.57 57.62 4.09 57.85 5.19L58.37 5.15C58.13 3.98 57.32 3.14 55.76 3.14C54.10 3.14 52.82 4.21 52.82 6.83C52.82 8.99 53.61 10.64 55.80 10.64ZM66.56 10.22L66.00 10.22C65.55 10.22 65.44 10.00 65.44 9.60L65.44 5.54C65.44 3.93 64.58 3.14 62.94 3.14C61.39 3.14 60.58 3.86 60.41 5.05L60.90 5.10C61.08 4.00 61.73 3.54 62.93 3.54C64.32 3.54 64.95 4.21 64.95 5.60L64.95 6.33L63.24 6.33C61.26 6.33 60.09 7.07 60.09 8.57C60.09 9.79 60.87 10.64 62.36 10.64C63.70 10.64 64.58 10.01 64.95 8.83L64.95 9.63C64.95 10.22 65.16 10.64 65.90 10.64C66.19 10.64 66.43 10.63 66.56 10.61ZM62.36 10.23C61.21 10.23 60.56 9.56 60.56 8.55C60.56 7.25 61.60 6.72 63.36 6.72L64.95 6.72L64.95 7.03C64.95 8.82 64.16 10.23 62.36 10.23ZM73.16 10.50L73.64 10.50L73.64 5.60C73.64 3.72 72.63 3.14 71.29 3.14C69.97 3.14 69.12 3.98 68.87 5.07L68.84 3.28L68.39 3.28C68.42 4.07 68.42 4.42 68.42 5.03L68.42 10.50L68.89 10.50L68.89 6.43C68.89 4.55 69.89 3.56 71.19 3.56C72.31 3.56 73.16 4.05 73.16 5.66Z"></path></g></svg>