<svg data-v-423bf9ae="" xmlns="http://www.w3.org/2000/svg" viewBox="0 0 207.62281409645516 60" class="font"><!----><!----><!----><g data-v-423bf9ae="" id="4891dddf-5246-47e1-9fe5-a5466af7ce01" fill="black" transform="matrix(4.754358204761736,0,0,4.754358204761736,-3.9936630362457777,-5.182250244256245)"><path d="M3.82 10.64C5.50 10.64 6.24 9.46 6.43 8.41L5.92 8.37C5.70 9.38 5.12 10.21 3.82 10.21C1.96 10.21 1.37 8.74 1.37 6.82C1.37 4.58 2.28 3.57 3.78 3.57C4.90 3.57 5.64 4.09 5.87 5.19L6.38 5.15C6.15 3.98 5.33 3.14 3.78 3.14C2.11 3.14 0.84 4.21 0.84 6.83C0.84 8.99 1.62 10.64 3.82 10.64ZM14.57 10.22L14.01 10.22C13.57 10.22 13.45 10.00 13.45 9.60L13.45 5.54C13.45 3.93 12.60 3.14 10.96 3.14C9.41 3.14 8.60 3.86 8.43 5.05L8.92 5.10C9.10 4.00 9.74 3.54 10.95 3.54C12.33 3.54 12.96 4.21 12.96 5.60L12.96 6.33L11.26 6.33C9.28 6.33 8.11 7.07 8.11 8.57C8.11 9.79 8.89 10.64 10.37 10.64C11.72 10.64 12.60 10.01 12.96 8.83L12.96 9.63C12.96 10.22 13.17 10.64 13.92 10.64C14.21 10.64 14.45 10.63 14.57 10.61ZM10.37 10.23C9.23 10.23 8.58 9.56 8.58 8.55C8.58 7.25 9.62 6.72 11.38 6.72L12.96 6.72L12.96 7.03C12.96 8.82 12.18 10.23 10.37 10.23ZM21.18 10.50L21.66 10.50L21.66 5.60C21.66 3.72 20.65 3.14 19.31 3.14C17.99 3.14 17.14 3.98 16.88 5.07L16.86 3.28L16.41 3.28C16.44 4.07 16.44 4.42 16.44 5.03L16.44 10.50L16.91 10.50L16.91 6.43C16.91 4.55 17.91 3.56 19.21 3.56C20.33 3.56 21.18 4.05 21.18 5.66ZM30.03 3.81C30.03 2.16 29.12 1.09 26.95 1.09L24.18 1.09L24.18 10.50L24.68 10.50L24.68 6.57L27.01 6.57C29.08 6.57 30.03 5.43 30.03 3.81ZM29.53 3.81C29.53 5.22 28.77 6.13 26.96 6.13L24.68 6.13L24.68 1.51L26.92 1.51C28.76 1.51 29.53 2.46 29.53 3.81ZM37.86 10.22L37.30 10.22C36.85 10.22 36.74 10.00 36.74 9.60L36.74 5.54C36.74 3.93 35.88 3.14 34.24 3.14C32.69 3.14 31.88 3.86 31.71 5.05L32.20 5.10C32.38 4.00 33.03 3.54 34.23 3.54C35.62 3.54 36.25 4.21 36.25 5.60L36.25 6.33L34.54 6.33C32.56 6.33 31.39 7.07 31.39 8.57C31.39 9.79 32.17 10.64 33.66 10.64C35 10.64 35.88 10.01 36.25 8.83L36.25 9.63C36.25 10.22 36.46 10.64 37.20 10.64C37.49 10.64 37.73 10.63 37.86 10.61ZM33.66 10.23C32.51 10.23 31.86 9.56 31.86 8.55C31.86 7.25 32.90 6.72 34.66 6.72L36.25 6.72L36.25 7.03C36.25 8.82 35.46 10.23 33.66 10.23ZM39.51 13.71C40.32 13.71 40.64 13.44 41.10 12.24L44.51 3.28L44.00 3.28L42.28 7.90C41.89 8.96 41.52 10.04 41.52 10.04C41.52 10.04 41.10 8.93 40.71 7.92L38.92 3.28L38.42 3.28L41.27 10.56L40.68 12.12C40.36 12.99 40.19 13.31 39.33 13.31L38.70 13.31L38.70 13.71Z"></path></g><!----><!----></svg>